<svg width="32" height="32" viewBox="0 0 32 32" fill="none" xmlns="http://www.w3.org/2000/svg">
<g clip-path="url(#clip0_118_56)">
<path d="M18.0585 12.4849L18.8712 11.5953C18.7181 11.2899 18.6707 10.9343 18.7378 10.5938C18.8049 10.2532 18.982 9.95064 19.2365 9.74155C19.4911 9.53247 19.806 9.43093 20.1234 9.45558C20.4408 9.48024 20.7395 9.62943 20.9645 9.87576C21.1895 10.1221 21.3258 10.449 21.3483 10.7965C21.3708 11.144 21.2781 11.4887 21.0871 11.7674C20.8961 12.046 20.6197 12.2399 20.3086 12.3133C19.9975 12.3868 19.6727 12.335 19.3938 12.1673L18.4733 13.175C18.439 13.2125 18.3984 13.2423 18.3537 13.2626C18.3089 13.2829 18.261 13.2933 18.2125 13.2933H14.264C14.1663 13.2933 14.0725 13.2508 14.0034 13.1752C13.9343 13.0995 13.8955 12.9969 13.8955 12.8899C13.8955 12.7829 13.9343 12.6803 14.0034 12.6046C14.0725 12.529 14.1663 12.4865 14.264 12.4865L18.0585 12.4849ZM12.5451 14.8665C12.5451 14.9735 12.584 15.0761 12.6531 15.1517C12.7222 15.2274 12.8159 15.2699 12.9137 15.2699H15.3325C15.3809 15.2699 15.4288 15.2595 15.4735 15.2392C15.5182 15.2189 15.5589 15.1892 15.5931 15.1517C15.6273 15.1143 15.6544 15.0698 15.673 15.0208C15.6915 14.9719 15.701 14.9194 15.701 14.8665C15.701 14.8135 15.6915 14.761 15.673 14.7121C15.6544 14.6631 15.6273 14.6186 15.5931 14.5812C15.5589 14.5437 15.5182 14.514 15.4735 14.4937C15.4288 14.4734 15.3809 14.463 15.3325 14.463H12.9137C12.8159 14.463 12.7222 14.5055 12.6531 14.5812C12.584 14.6568 12.5451 14.7595 12.5451 14.8665ZM18.4826 20.8193C18.7277 20.8191 18.9679 20.7442 19.1763 20.6029C19.3848 20.4617 19.5531 20.2597 19.6626 20.0196C19.7721 19.7796 19.8184 19.5109 19.7962 19.2436C19.7741 18.9764 19.6844 18.7212 19.5373 18.5066C19.3901 18.292 19.1913 18.1265 18.9631 18.0286C18.7348 17.9307 18.4862 17.9043 18.2451 17.9524C18.0039 18.0004 17.7798 18.121 17.5977 18.3007C17.4156 18.4803 17.2828 18.7119 17.2142 18.9695H14.676C14.5783 18.9695 14.4845 19.012 14.4154 19.0877C14.3463 19.1633 14.3075 19.2659 14.3075 19.3729C14.3075 19.4799 14.3463 19.5826 14.4154 19.6582C14.4845 19.7339 14.5783 19.7764 14.676 19.7764H17.2142C17.2943 20.0769 17.4612 20.3409 17.6899 20.5289C17.9185 20.7169 18.1966 20.8188 18.4826 20.8193ZM19.9127 16.9117C19.9127 16.8587 19.9032 16.8062 19.8847 16.7573C19.8662 16.7083 19.839 16.6638 19.8048 16.6264C19.7706 16.5889 19.7299 16.5592 19.6852 16.5389C19.6405 16.5187 19.5926 16.5082 19.5442 16.5082H17.8564C17.7586 16.5082 17.6649 16.5507 17.5958 16.6264C17.5267 16.702 17.4878 16.8047 17.4878 16.9117C17.4878 17.0187 17.5267 17.1213 17.5958 17.1969C17.6649 17.2726 17.7586 17.3151 17.8564 17.3151H19.5434C19.5918 17.3151 19.6397 17.3047 19.6844 17.2844C19.7291 17.2641 19.7697 17.2344 19.804 17.1969C19.8382 17.1595 19.8653 17.115 19.8838 17.066C19.9024 17.0171 19.9119 16.9646 19.9119 16.9117H19.9127ZM17.9515 4.88009C17.9515 4.77309 17.9127 4.67047 17.8436 4.59481C17.7745 4.51915 17.6807 4.47665 17.583 4.47665H16.5558V5.28353H17.583C17.6807 5.28353 17.7745 5.24102 17.8436 5.16536C17.9127 5.0897 17.9515 4.98709 17.9515 4.88009ZM18.4039 9.36611L19.8239 7.81166H22.15C22.2388 8.1458 22.4347 8.43367 22.7017 8.62239C22.9688 8.81111 23.2891 8.888 23.6038 8.83894C23.9185 8.78988 24.2064 8.61816 24.4148 8.35532C24.6231 8.09249 24.7378 7.7562 24.7378 7.40822C24.7378 7.06023 24.6231 6.72394 24.4148 6.46111C24.2064 6.19827 23.9185 6.02655 23.6038 5.97749C23.2891 5.92843 22.9688 6.00532 22.7017 6.19404C22.4347 6.38276 22.2388 6.67063 22.15 7.00477H19.6713C19.6228 7.00476 19.5749 7.0152 19.5301 7.03551C19.4854 7.05581 19.4447 7.08558 19.4105 7.1231L17.9906 8.67755H16.5558V9.48443H18.1432C18.1916 9.48464 18.2395 9.4744 18.2842 9.4543C18.329 9.4342 18.3697 9.40464 18.4039 9.36731V9.36611ZM18.8036 25.4495C18.8036 25.3426 18.7647 25.2399 18.6956 25.1643C18.6265 25.0886 18.5328 25.0461 18.435 25.0461H16.5558V25.853H18.435C18.5326 25.853 18.6261 25.8107 18.6952 25.7353C18.7643 25.6599 18.8033 25.5575 18.8036 25.4508V25.4495ZM18.8036 6.54804C18.8036 6.44104 18.7647 6.33843 18.6956 6.26277C18.6265 6.18711 18.5328 6.1446 18.435 6.1446H16.5558V6.95148H18.435C18.5326 6.95148 18.6261 6.90914 18.6952 6.83375C18.7643 6.75835 18.8033 6.65604 18.8036 6.54925V6.54804ZM16.5558 26.7165V27.5234H17.583C17.6314 27.5234 17.6793 27.5129 17.724 27.4926C17.7687 27.4724 17.8094 27.4427 17.8436 27.4052C17.8778 27.3677 17.905 27.3233 17.9235 27.2743C17.942 27.2254 17.9515 27.1729 17.9515 27.1199C17.9515 27.0669 17.942 27.0145 17.9235 26.9655C17.905 26.9166 17.8778 26.8721 17.8436 26.8346C17.8094 26.7972 17.7687 26.7675 17.724 26.7472C17.6793 26.7269 17.6314 26.7165 17.583 26.7165H16.5558ZM21.0937 26.1857C20.8074 26.186 20.5289 26.288 20.3 26.4763C20.0712 26.6646 19.9043 26.9291 19.8244 27.2301H19.0698C18.972 27.2302 18.8783 27.2726 18.8091 27.3481L17.5327 28.7457H16.5558V29.5526H17.6864C17.7842 29.5526 17.878 29.51 17.9471 29.4343L19.2235 28.037H19.8244C19.8931 28.2946 20.0259 28.5262 20.2079 28.7058C20.39 28.8855 20.6142 29.0061 20.8553 29.0541C21.0965 29.1022 21.3451 29.0758 21.5733 28.9779C21.8015 28.88 22.0004 28.7145 22.1475 28.4999C22.2947 28.2853 22.3843 28.0301 22.4065 27.7629C22.4286 27.4956 22.3823 27.2269 22.2729 26.9869C22.1634 26.7468 21.995 26.5448 21.7866 26.4036C21.5782 26.2623 21.338 26.1874 21.0928 26.1872L21.0937 26.1857ZM23.4179 23.1448C23.1321 23.1454 22.8541 23.2472 22.6256 23.4351C22.3971 23.623 22.2302 23.8868 22.15 24.1871H19.8239L18.4039 22.6327C18.3697 22.5951 18.3291 22.5654 18.2844 22.5451C18.2396 22.5247 18.1917 22.5143 18.1432 22.5144H16.5558V23.3212H17.9906L19.4105 24.8757C19.4447 24.9132 19.4854 24.943 19.5301 24.9633C19.5749 24.9836 19.6228 24.994 19.6713 24.994H22.15C22.2187 25.2516 22.3515 25.4832 22.5335 25.6629C22.7156 25.8425 22.9398 25.9631 23.1809 26.0112C23.4221 26.0592 23.6707 26.0328 23.8989 25.935C24.1271 25.8371 24.326 25.6716 24.4731 25.457C24.6203 25.2424 24.7099 24.9871 24.7321 24.7199C24.7542 24.4527 24.7079 24.184 24.5985 23.9439C24.489 23.7038 24.3206 23.5018 24.1122 23.3606C23.9038 23.2194 23.6636 23.1444 23.4184 23.1442L23.4179 23.1448ZM18.8102 4.65338C18.8794 4.72891 18.9731 4.77134 19.0709 4.7714H19.8244C19.9132 5.10554 20.1091 5.39342 20.3761 5.58214C20.6432 5.77085 20.9635 5.84774 21.2782 5.79868C21.5929 5.74962 21.8808 5.5779 22.0892 5.31507C22.2975 5.05223 22.4122 4.71594 22.4122 4.36796C22.4122 4.01998 22.2975 3.68368 22.0892 3.42085C21.8808 3.15801 21.5929 2.98629 21.2782 2.93723C20.9635 2.88817 20.6432 2.96506 20.3761 3.15378C20.1091 3.3425 19.9132 3.63037 19.8244 3.96452H19.2235L17.9471 2.56723C17.878 2.4915 17.7842 2.44894 17.6864 2.4489H16.5558V3.25578H17.5338L18.8102 4.65338ZM10.8064 16C10.808 14.5089 11.3257 13.0739 12.2552 11.9841C13.1847 10.8942 14.457 10.2305 15.8157 10.1266V2C15.2296 2.01842 14.6452 2.08058 14.0668 2.18606L13.5858 6.56852C13.5775 6.64401 13.5498 6.71537 13.506 6.7744C13.4622 6.83342 13.4041 6.87769 13.3383 6.90211C12.99 7.03262 12.6495 7.18718 12.3191 7.36486C12.2568 7.39836 12.1872 7.41192 12.1182 7.40398C12.0492 7.39604 11.9836 7.36693 11.9291 7.32L8.75943 4.59346C7.6018 5.49625 6.58969 6.60393 5.7647 7.87097L8.25531 11.3421C8.29816 11.4018 8.32476 11.4736 8.33206 11.5492C8.33935 11.6247 8.32705 11.701 8.29657 11.7693C8.13435 12.1305 7.99317 12.5026 7.87386 12.8833C7.85152 12.9553 7.81107 13.0189 7.75716 13.0668C7.70325 13.1148 7.63808 13.1451 7.56913 13.1542L3.56562 13.6817C3.33197 15.2167 3.33197 16.7833 3.56562 18.3183L7.56858 18.8449C7.63754 18.854 7.70273 18.8843 7.75665 18.9322C7.81056 18.9802 7.851 19.0438 7.87331 19.1158C7.9927 19.4971 8.13388 19.8698 8.29602 20.2316C8.32661 20.2998 8.339 20.376 8.33175 20.4515C8.3245 20.5271 8.29791 20.5988 8.25504 20.6585L5.7647 24.129C6.58969 25.3961 7.6018 26.5037 8.75943 27.4065L11.9304 24.68C11.985 24.6331 12.0505 24.604 12.1195 24.596C12.1885 24.5881 12.2582 24.6016 12.3204 24.6351C12.6504 24.8126 12.9903 24.9672 13.338 25.0979C13.4038 25.1223 13.4619 25.1666 13.5057 25.2256C13.5495 25.2846 13.5772 25.356 13.5855 25.4315L14.0666 29.8139C14.645 29.9194 15.2293 29.9816 15.8154 30V21.8734C14.4568 21.7694 13.1845 21.1057 12.2551 20.0158C11.3256 18.926 10.808 17.491 10.8064 16ZM22.3426 16.4299C22.5877 16.4297 22.8279 16.3548 23.0363 16.2136C23.2448 16.0723 23.4132 15.8703 23.5227 15.6303C23.6321 15.3902 23.6784 15.1214 23.6562 14.8542C23.6341 14.5869 23.5444 14.3317 23.3972 14.1171C23.2501 13.9025 23.0512 13.737 22.823 13.6391C22.5947 13.5413 22.3461 13.5149 22.1049 13.563C21.8638 13.6111 21.6396 13.7318 21.4575 13.9115C21.2755 14.0912 21.1427 14.3228 21.0741 14.5804H17.3512C17.2535 14.5804 17.1598 14.6229 17.0907 14.6985L15.6708 16.2529H12.8069C12.7092 16.2529 12.6155 16.2954 12.5464 16.3711C12.4772 16.4467 12.4384 16.5493 12.4384 16.6563C12.4384 16.7633 12.4772 16.866 12.5464 16.9416C12.6155 17.0173 12.7092 17.0598 12.8069 17.0598H15.8245C15.8729 17.0598 15.9208 17.0493 15.9655 17.029C16.0102 17.0087 16.0508 16.979 16.0849 16.9415L17.5049 15.3873H21.0747C21.1548 15.6877 21.3216 15.9516 21.5501 16.1396C21.7787 16.3275 22.0567 16.4294 22.3426 16.4299Z" fill="#66AAD0"/>
</g>
<defs>
<clipPath id="clip0_118_56">
<rect width="32" height="32" fill="white"/>
</clipPath>
</defs>
</svg>
